# xmcd
# 
# Track frame offsets:
#     150
#     14002
#     26696
#     48051
# 
# Disc length: 929
# 
# Revision: 0
# Processed by: cddbd v1.5.2PL0 Copyright (c) Steve Scherf et al.
# Submitted via: fre:ac v1.0.17
# 
DISCID=28039f04
DTITLE=A-Lin - A-Lin 2013 feel Lin live EP
DYEAR=2013
DGENRE=
TTITLE0=失戀無罪
TTITLE1=拒絕再玩
TTITLE2=寂寞𣎴痛
TTITLE3=給我一個理由忘記
EXTD=
EXTT0=
EXTT1=
EXTT2=
EXTT3=
PLAYORDER=
